<svg xmlns="http://www.w3.org/2000/svg" id="Layer_1" version="1.1" viewBox="0 0 392.2 150.4"><defs><style>.st0{fill:#efe222}</style></defs><path d="M357.8 36.4H304V1.6h53.8zm0 112.4H304V43.9h53.8zM0 148.8V1.6h56.2v52.1c59.7 19.9 124.3 20 184 0h.2V1.6h56v147.3h-56v-56h-.2c-59.7 20-124.3 19.9-184 0v56H0Zm382.9-9.7c0-2.4-.5-2.8-1.3-3.3 1-.4 1.6-1.7 1.6-3.1s-.5-3.6-3.3-3.6h-5.3V142h2.2v-5h2.3c1.6 0 1.7.7 1.7 2.4s0 2 .2 2.6h2.4v-.3c-.5-.2-.5-.7-.5-2.6m-3.7-4.3h-2.6v-3.5h2.8c1.3 0 1.5 1 1.5 1.7 0 1.3-.6 1.8-1.7 1.8" class="st0"/><path d="M378.9 122.3c-7.3 0-13.3 6-13.3 13.3s6 13.3 13.3 13.3 13.3-6 13.3-13.3-6-13.3-13.3-13.3m10.4 13.2c0 5.7-4.6 10.4-10.4 10.4s-10.4-4.6-10.4-10.4 4.6-10.4 10.4-10.4 10.4 4.6 10.4 10.4" class="st0"/></svg>