<svg xmlns="http://www.w3.org/2000/svg" width="64" height="64" fill="none"><g fill="#EFE222" clip-path="url(#a)"><path d="M56.737 26.067h-8.23v-5.322h8.23zm0 17.188h-8.23V27.213h8.23zM2 43.255v-22.51h8.598v7.967a44.43 44.43 0 0 0 28.149 0h.03v-7.967h8.567V43.27h-8.567v-8.564h-.03a44.43 44.43 0 0 1-28.15 0v8.564H2zm58.577-1.483c0-.367-.076-.428-.199-.505.153-.06.245-.26.245-.474s-.076-.55-.505-.55h-.81v1.972h.336v-.764h.352c.245 0 .26.107.26.367s0 .306.03.397h.368v-.045c-.077-.031-.077-.108-.077-.398m-.566-.658h-.398v-.535h.429c.199 0 .23.153.23.26 0 .199-.093.275-.26.275"/><path d="M59.965 39.203a2.043 2.043 0 0 0-2.034 2.034c0 1.116.918 2.034 2.034 2.034A2.043 2.043 0 0 0 62 41.237a2.043 2.043 0 0 0-2.035-2.034m1.591 2.018a1.59 1.59 0 0 1-1.59 1.59 1.58 1.58 0 0 1-1.592-1.59c0-.887.704-1.59 1.591-1.59a1.58 1.58 0 0 1 1.591 1.59"/></g><defs><clipPath id="a"><path fill="#fff" d="M2 20.5h60v23H2z"/></clipPath></defs></svg>