<svg xmlns="http://www.w3.org/2000/svg" id="Layer_1" version="1.1" viewBox="0 0 1010.3 95.9"><defs><style>.st0{fill:#fff}</style></defs><path d="M995.8 18.4c0-2.4-.5-2.8-1.3-3.3 1-.4 1.6-1.7 1.6-3.1s-.5-3.6-3.3-3.6h-5.3v12.9h2.2v-5h2.3c1.6 0 1.7.7 1.7 2.4s0 2 .2 2.6h2.4V21c-.5-.2-.5-.7-.5-2.6m-3.6-4.3h-2.6v-3.5h2.8c1.3 0 1.5 1 1.5 1.7 0 1.3-.6 1.8-1.7 1.8" class="st0"/><path d="M991.9 1.6c-7.3 0-13.3 6-13.3 13.3s6 13.3 13.3 13.3 13.3-6 13.3-13.3-6-13.3-13.3-13.3m10.3 13.3c0 5.7-4.6 10.4-10.4 10.4s-10.4-4.6-10.4-10.4S986 4.5 991.8 4.5s10.4 4.6 10.4 10.4M200.6 77l-23.7-49.1H204l13.8 31.9 13.1-31.9h26L234.1 77zm138.7-19.1v.2c0 1.7-.2 3.3-.7 4.7q-.6 2.25-3 5.1c-1.6 1.9-3.6 3.5-6.1 4.8s-6.2 2.5-10.8 3.4c-4.7.9-10.1 1.4-16.3 1.4h-4.9c-5.9 0-11.1-.5-15.6-1.6s-8.1-2.4-10.8-4.1-4.8-3.7-6.5-6-2.8-4.6-3.4-6.9q-.9-3.45-.9-7.2v-1.9c0-16.8 12.3-25.2 37-25.2h5.1q6.75 0 12.3.9c3.7.6 6.8 1.4 9.4 2.4 2.5 1 4.8 2.2 6.7 3.7q2.85 2.25 4.5 4.5c1.65 2.25 2 3.2 2.7 5.1s1.1 3.7 1.4 5.3q.3 2.4.3 5.4v2.8h-54.5c.9 6.1 5.9 9.2 15.2 9.2q3.3 0 6-.6c1.8-.4 3.1-.8 4.1-1.3s1.8-1 2.4-1.6q.9-.9 1.2-1.5c.2-.4.3-.8.4-1.1h25Zm-39.6-21q-12.45 0-14.4 7.5h28.9q-1.65-7.5-14.4-7.5M173.4 24.1h-25.3V7.7h25.3zm0 52.9h-25.3V27.6h25.3zM5.1 77V7.7h26.4v24.5c28.1 9.4 58.5 9.4 86.6 0V7.7h26.3V77h-26.3V50.6C90 60 59.6 60 31.5 50.6V77zm446.7-.2-5.4-11.1H407l-5.3 11.1H375l34.1-69h35.4l36.1 69zm-13.9-28.4-11.6-23.7L415 48.4zm44.9 28.4V26.9h25v8.8c.9-.9 1.7-1.5 2.2-2s1.7-1.3 3.4-2.5q2.7-1.8 5.1-2.7c1.7-.6 3.8-1.3 6.5-1.9s5.5-.9 8.5-.9h.6c4.5 0 8.3.6 11.6 1.8s5.9 2.8 7.7 4.7 3.1 4 3.9 6c.8 2.1 1.3 4.2 1.3 6.4v32.1h-25.3V52.9c0-3.5-1-6.3-2.9-8.4s-5-3.1-9.1-3.1-7.4 1.1-9.7 3.3c-2.4 2.2-3.5 5.2-3.5 8.8v23.2h-25.2Zm128.3-6.7c-5.1 5.1-12.9 7.6-23.4 7.6h-1c-7.8 0-13.6-1.5-17.4-4.6q-5.7-4.65-5.7-11.4v-1.1c0-4.3 1.6-7.7 4.7-10.1s8.3-3.8 15.5-4.4l24-2.1c1.9-.2 2.8-1.1 2.8-2.4s-.2-1.4-.6-1.9-1.4-.9-3.1-1.3-4.1-.6-7.1-.6h-.4c-2.5 0-4.5.2-6.2.5-1.6.3-2.8.9-3.4 1.5-.6.7-1.1 1.2-1.2 1.5-.2.3-.3.9-.4 1.5h-23.4v-.6c0-1.7.1-3.1.4-4.4.3-1.2 1-2.7 2.3-4.4 1.2-1.7 2.9-3 5.1-4.1 2.1-1.1 5.3-2 9.5-2.7 4.2-.8 9.1-1.2 14.8-1.2h5.2c5.9 0 11.1.4 15.4 1.1s7.6 1.6 9.8 2.6 4 2.3 5.3 3.9q1.95 2.4 2.4 4.2c.3 1.2.4 2.6.4 4.3V60q0 2.1 2.1 2.1h2.7v14.6h-21c-4.6 0-7.3-2.2-8.1-6.7m-.4-14.6v-2.1l-16.7 3c-2.2.4-3.8.9-4.7 1.5s-1.4 1.5-1.4 2.8c0 1.5.6 2.7 1.8 3.7s3.2 1.5 6.1 1.5c4.5 0 8.1-1 10.8-3.1 2.8-2.1 4.1-4.5 4.1-7.2m33.8-47.7h25.2v69h-25.2zm40 86.5V78.9h11.3c1.5 0 2.3-.5 2.3-1.6 0-.8-.7-2.4-2.1-5.1l-23.6-45.3h26.9L713.2 59l12.9-32.1h25l-24 52c-2.5 5.4-5.2 9.3-8.2 11.7s-6.6 3.6-11 3.6h-23.5Zm111.7-17.5h-21.3c-8.8 0-13.3-4.7-13.3-14.2V42.2H752V26.9h9.6V12.3h25v14.6h9.6v15.3h-9.6v14.7c0 1.6.3 2.7.8 3.4.5.6 1.7 1 3.4 1h5.4zm31.3-54.1h-25.2V7.8h25.2zm0 54.1h-25.2V26.9h25.2zm47.8 1.4h-5.6c-6.1 0-11.5-.6-16.1-1.7s-8.2-2.6-10.7-4.3-4.6-3.8-6.2-6.3c-1.6-2.4-2.6-4.7-3.1-6.8s-.7-4.3-.7-6.7v-1.7q0-25.2 36.6-25.2h5.8c6.3 0 11.8.6 16.6 1.7 4.7 1.1 8.3 2.5 10.8 4.1q3.75 2.4 6 5.7c2.25 3.3 2.5 4.1 2.8 5.8.4 1.6.6 3.3.6 5v.3h-25.8c-.1-.7-.4-1.5-.7-2.2s-.9-1.7-1.8-2.7c-.9-1.1-2.3-2-4.2-2.6-1.9-.7-4.3-1-7.1-1h-.4q-7.35 0-10.5 3.3c-2 2.2-3.1 5-3.1 8.3v.5c0 3.5 1.1 6.5 3.2 9 2.1 2.4 5.6 3.7 10.4 3.7h.4c2.7 0 5.1-.4 7-1.1s3.4-1.6 4.3-2.8c.9-1.1 1.5-2.1 1.9-2.9.3-.8.6-1.5.7-2.3h25.8v.2c0 1.2 0 2.3-.2 3.4s-.5 2.5-1.1 4c-.6 1.6-1.4 3-2.4 4.4s-2.4 2.7-4.3 4.1q-2.85 2.1-6.6 3.6c-3.75 1.5-5.7 1.8-9.5 2.4s-8.1.9-12.8.9m77.8-.1H948q-33.3 0-33.3-17.7v-.6h25.7q0 .9.3 1.8c.2.6.6 1.2 1.3 1.9.6.7 1.7 1.3 3.2 1.8 1.5.4 3.4.6 5.5.6h.2c4 0 6.7-.4 8.2-1.1 1.4-.7 2.1-1.8 2.1-3.1v-.2c0-1.3-.6-2.3-1.9-2.9-1.2-.6-3.8-1-7.7-1.2l-10.6-.3c-17.2-.6-25.8-5.8-25.8-15.7v-.6c0-2.2.4-4.2 1.3-5.9s2.4-3.3 4.7-4.9c2.3-1.5 5.6-2.7 10.1-3.5s10-1.2 16.6-1.2h4.9c21.8 0 32.7 5.2 32.7 15.5v.6h-25.2c-.1-.8-.3-1.5-.6-2s-1.3-1.1-2.8-1.7c-1.6-.6-3.8-.9-6.5-.9-3.8 0-6.4.3-7.7.8s-2 1.4-2 2.6.6 2.1 1.9 2.7 3.7 1 7.3 1.1l10.5.3c7.4.2 13 1 17.1 2.3q6 1.95 8.1 5.1c1.4 2.1 2 4.9 2 8.4v.6c0 2-.2 3.8-.7 5.3-.5 1.6-1.5 3.1-3 4.6s-3.5 2.8-5.9 3.8c-2.5 1-5.8 1.8-10 2.5-4.2.6-9.1.9-14.8.9" class="st0"/></svg>