<svg xmlns="http://www.w3.org/2000/svg" width="203" height="107" fill="none"><g clip-path="url(#a)"><path stroke="url(#b)" stroke-opacity=".05" d="M-90.706-123.771H-109v19.083m18.294-19.083v19.083m0-19.083h18.294M-109-104.688h18.294m-18.294 0v19.084m18.294-19.084h18.294m-18.294 0v19.084m18.294-38.167v19.083m0-19.083h18.294m-18.294 19.083h18.294m-18.294 0v19.084m-18.294 0H-109m18.294 0h18.294m-18.294 0v19.082M-109-85.603v19.082m54.882-57.249v19.083m0-19.083h18.295m-18.295 19.083h18.295m-18.295 0v19.084m-18.294 0h18.294m-18.294 0v19.082m36.589-57.249v19.083m0-19.083h18.293m-18.293 19.083h18.293m-18.293 0-.001 19.084m-18.294 0h18.294m-18.294 0v19.082m36.588-57.249v19.083m0-19.083H.764m-18.294 19.083H.765m-18.295 0 .001 19.084m-18.295 0h18.295m-18.295 0v19.082M.764-123.77l.001 19.083M.764-123.77h18.295M.765-104.688h18.294m-18.294 0v19.084m-18.294 0H.765m-18.294 0-.001 19.082m36.589-57.249v19.083m0-19.083h18.294m-18.294 19.083h18.294m-18.294 0v19.084m-18.294 0h18.293m-18.293 0L.764-66.523m36.589-57.249v19.083m0-19.083h18.294m-18.294 19.083h18.294m-18.294 0v19.084m18.294-38.167v19.083m0-19.083h18.294m-18.294 19.083h18.294m-18.294 0v19.084m-18.294 0H19.058m18.295 0h18.293m-18.293 0-.001 19.082m36.589-57.249v19.083m0-19.083h18.294m-18.294 19.083h18.294m-18.294 0v19.084m18.294-38.167v19.083m0-19.083h18.294m-18.294 19.083h18.294m-18.294 0v19.084m-18.294 0H55.646m18.295 0h18.293m-18.293 0-.001 19.082m36.589-57.249v19.083m0-19.083h18.295m-18.295 19.083h18.295m-18.295 0v19.084m18.295-38.167v19.083m0-19.083h18.294m-18.294 19.083h18.294m-18.294 0v19.084m18.294-38.167v19.083m0-19.083h18.294m-18.294 19.083h18.294m-18.294 0v19.084m18.294-38.167v19.083m0-19.083h18.294m-18.294 19.083h18.294m-18.294 0v19.084m18.294-38.167v19.083m0-19.083H202v19.083m-18.294 0H202m-18.294 0v209.917H202V86.145m-36.588-171.75h-18.295m18.295 0H202m-36.588 0-.001 19.084M202-104.689v19.084m0 0v19.082m-292.706 0H-109m18.294 0h18.294m-18.294 0v19.084M-109-66.522v19.084m36.588-19.084h18.294m-18.294 0v19.084m18.294-19.084h18.294m-18.294 0v19.084m18.294-19.084h18.294m-18.294 0v19.084m18.294-19.084H.764m-18.294 0v19.084m36.588-38.166v19.082m-18.294 0h18.294m-18.294 0v19.084m18.294-19.084h18.294m-18.294 0v19.084m36.588-38.166v19.082m-18.294 0h18.294m-18.294 0v19.084m18.294-19.084H73.94m-18.294 0v19.084m36.588-38.166h18.294m-18.294 0v19.082m-18.294 0h18.294m-18.294 0v19.084m36.588-38.166h18.295m-18.295 0v19.082m-18.294 0h18.294m-18.294 0v19.084m36.589-38.166h18.294m-18.294 0v19.082m-18.295 0h18.295m-18.295 0v19.084m36.589-38.166v19.082m-18.294 0h18.294m-18.294 0v19.084m18.294-19.084h18.294m-18.294 0v19.084m18.294-19.084H202m-36.589 0v19.084M202-66.522v19.084m-292.706 0H-109m18.294 0h18.294m-18.294 0v19.084M-109-47.439v19.084m36.588-19.084h18.294m-18.294 0v19.084m18.294-19.084h18.294m-18.294 0v19.084m18.294-19.084h18.294m-18.294 0v19.084m18.294-19.084H.764m-18.294 0v19.084M.764-47.439h18.294m-18.294 0v19.084m18.294-19.084h18.294m-18.294 0v19.084m18.294-19.084h18.294m-18.294 0v19.084m18.294-19.084H73.94m-18.294 0v19.084M73.94-47.439h18.294m-18.294 0v19.084m18.294-19.084h18.294m-18.294 0v19.084m18.294-19.084h18.295m-18.295 0v19.084m18.295-19.084h18.294m-18.294 0v19.084m18.294-19.084h18.294m-18.294 0v19.084m18.294-19.084H202m-36.589 0v19.084M202-47.439v19.084m-292.706 0H-109m18.294 0h18.294m-18.294 0v19.083M-109-28.355V-9.27m36.588-19.084h18.294m-18.294 0V-9.27m18.294-19.084h18.294m-18.294 0V-9.27m18.294-19.084h18.294m-18.294 0V-9.27m18.294-19.084H.764m-18.294 0V-9.27M.764-28.355h18.294m-18.294 0V-9.27m18.294-19.084h18.294m-18.294 0V-9.27m18.294-19.084h18.294m-18.294 0V-9.27m18.294-19.084H73.94m-18.294 0V-9.27M73.94-28.355h18.294m-18.294 0V-9.27m18.294-19.084h18.294m-18.294 0V-9.27m18.294-19.084h18.295m-18.295 0V-9.27m18.295-19.084h18.294m-18.294 0V-9.27m18.294-19.084h18.294m-18.294 0V-9.27m18.294-19.084H202m-36.589 0V-9.27M202-28.355V-9.27m-292.706 0H-109m18.294 0h18.294m-18.294 0V9.812M-109-9.271V9.812m36.588-19.083h18.294m-18.294 0V9.812m18.294-19.083h18.294m-18.294 0V9.812m18.294-19.083h18.294m-18.294 0V9.812M-17.53-9.271H.764m-18.294 0V9.812M.764-9.271h18.294m-18.294 0V9.812M19.058-9.271h18.294m-18.294 0V9.812M37.352-9.271h18.294m-18.294 0V9.812M55.646-9.271H73.94m-18.294 0V9.812M73.94-9.271h18.294m-18.294 0V9.812M92.234-9.271h18.294m-18.294 0V9.812m18.294-19.083h18.295m-18.295 0V9.812m18.295-19.083h18.294m-18.294 0V9.812m18.294-19.083h18.294m-18.294 0V9.812m18.294-19.083H202m-36.589 0V9.812M202-9.271V9.812m-292.706 0H-109m18.294 0h18.294m-18.294 0v19.084M-109 9.811v19.084m36.588-19.084h18.294m-18.294 0v19.084m18.294-19.084h18.294m-18.294 0v19.084m18.294-19.084h18.294m-18.294 0v19.084M-17.53 9.811H.764m-18.294 0v19.084M.764 9.811h18.294m-18.294 0v19.084M19.058 9.811h18.294m-18.294 0v19.084M37.352 9.811h18.294m-18.294 0v19.084M55.646 9.811H73.94m-18.294 0v19.084M73.94 9.811h18.294m-18.294 0v19.084M92.234 9.811h18.294m-18.294 0v19.084m18.294-19.084h18.295m-18.295 0v19.084m18.295-19.084h18.294m-18.294 0v19.084m18.294-19.084h18.294m-18.294 0v19.084m18.294-19.084H202m-36.589 0v19.084M202 9.811v19.084m-292.706 0H-109m18.294 0h18.294m-18.294 0v19.082M-109 28.895v19.083m36.588-19.083h18.294m-18.294 0v19.083m18.294-19.083h18.294m-18.294 0v19.083m18.294-19.083h18.294m-18.294 0v19.083m18.294-19.083H.764m-18.294 0v19.083M.764 28.895h18.294m-18.294 0v19.083m18.294-19.083h18.294m-18.294 0v19.083m18.294-19.083h18.294m-18.294 0v19.083m18.294-19.083H73.94m-18.294 0v19.083M73.94 28.895h18.294m-18.294 0v19.083m18.294-19.083h18.294m-18.294 0v19.083m18.294-19.083h18.295m-18.295 0v19.083m18.295-19.083h18.294m-18.294 0v19.083m18.294-19.083h18.294m-18.294 0v19.083m18.294-19.083H202m-36.589 0v19.083M202 28.895v19.083m-292.706 0H-109m18.294 0h18.294m-18.294 0v19.083M-109 47.978v19.083m36.588-19.083h18.294m-18.294 0v19.083m18.294-19.083h18.294m-18.294 0v19.083m18.294-19.083h18.294m-18.294 0v19.083m18.294-19.083H.764m-18.294 0v19.083M.764 47.978h18.294m-18.294 0v19.083m18.294-19.083h18.294m-18.294 0v19.083m18.294-19.083h18.294m-18.294 0v19.083m18.294-19.083H73.94m-18.294 0v19.083M73.94 47.978h18.294m-18.294 0v19.083m18.294-19.083h18.294m-18.294 0v19.083m18.294-19.083h18.295m-18.295 0v19.083m18.295-19.083h18.294m-18.294 0v19.083m18.294-19.083h18.294m-18.294 0v19.083m18.294-19.083H202m-36.589 0v19.083M202 47.978v19.083m-292.706 0H-109m18.294 0h18.294m-18.294 0v19.084M-109 67.061v19.084m36.588-19.084h18.294m-18.294 0v19.084m18.294-19.084h18.294m-18.294 0v19.084m18.294-19.084h18.294m-18.294 0v19.084m18.294-19.084H.764m-18.294 0v19.084M.764 67.061h18.294m-18.294 0v19.084m18.294-19.084h18.294m-18.294 0v19.084m18.294-19.084h18.294m-18.294 0v19.084m18.294-19.084H73.94m-18.294 0v19.084M73.94 67.061h18.294m-18.294 0v19.084m18.294-19.084h18.294m-18.294 0v19.084m18.294-19.084h18.295m-18.295 0v19.084m18.295-19.084h18.294m-18.294 0v19.084m18.294-19.084h18.294m-18.294 0v19.084m18.294-19.084H202m-36.589 0v19.084M202 67.061v19.084m-292.706 0H-109m18.294 0h18.294m-18.294 0v19.084M-109 86.145v19.084h18.294m18.294-19.084h18.294m-18.294 0v19.084m18.294-19.084h18.294m-18.294 0v19.084m18.294-19.084h18.294m-18.294 0v19.084m18.294-19.084H.764m-18.294 0v19.084M.764 86.145h18.294m-18.294 0v19.084m18.294-19.084h18.294m-18.294 0v19.084m18.294-19.084h18.294m-18.294 0v19.084m18.294-19.084H73.94m-18.294 0v19.084M73.94 86.145h18.294m-18.294 0v19.084m18.294-19.084h18.294m-18.294 0v19.084m18.294-19.084h18.295m-18.295 0v19.084m18.295-19.084h18.294m-18.294 0v19.084m18.294-19.084h18.294m-18.294 0v19.084m18.294-19.084H202m-36.589 0v19.084m-256.117 0h18.294m0 0h18.294m0 0h18.294m0 0h18.294m0 0H.764m0 0h18.294m0 0h18.294m0 0h18.294m0 0H73.94m0 0h18.294m0 0h18.294m0 0h18.295m0 0h18.294m0 0h18.294m0 0h18.294"/></g><defs><radialGradient id="b" cx="0" cy="0" r="1" gradientTransform="rotate(90.252 27.867 19.011)scale(113.756 163.879)" gradientUnits="userSpaceOnUse"><stop stop-color="#fff"/><stop offset=".884" stop-color="#fff" stop-opacity="0"/></radialGradient><clipPath id="a"><path fill="#fff" d="M0 .729h203v106H0z"/></clipPath></defs></svg>